<svg width="20" height="22" viewBox="0 0 20 22" fill="none" xmlns="http://www.w3.org/2000/svg">
<path d="M8.92999 1.10001L3.99999 9.00001M3.39999 1.10001H16.6C17.7 1.10001 18.6 2.00001 18.6 3.10001V5.30001C18.6 6.10001 18.1 7.10001 17.6 7.60001L13.3 11.4C12.7 11.9 12.3 12.9 12.3 13.7V18C12.3 18.6 11.9 19.4 11.4 19.7L9.99999 20.6C8.69999 21.4 6.89999 20.5 6.89999 18.9V13.6C6.89999 12.9 6.49999 12 6.09999 11.5L2.29999 7.50001C1.79999 7.00001 1.39999 6.10001 1.39999 5.50001V3.20001C1.39999 2.00001 2.29999 1.10001 3.39999 1.10001Z" stroke="#6850FF" stroke-width="1.5" stroke-miterlimit="10" stroke-linecap="round" stroke-linejoin="round"/>
</svg>
