<svg width="19" height="22" viewBox="0 0 19 22" fill="none" xmlns="http://www.w3.org/2000/svg">
<path d="M18.1579 4.98C15.0031 4.65 11.8294 4.48 8.66522 4.48C6.78943 4.48 4.91365 4.58 3.03786 4.78L1.10522 4.98M6.31575 3.97L6.52417 2.66C6.67575 1.71 6.78943 1 8.39049 1H10.8726C12.4736 1 12.5968 1.75 12.7389 2.67L12.9473 3.97M16.121 8.14L15.5052 18.21C15.401 19.78 15.3158 21 12.6726 21H6.59049C3.94733 21 3.86207 19.78 3.75786 18.21L3.14207 8.14M8.04943 15.5H11.2042M7.26312 11.5H12" stroke="#6850FF" stroke-width="1.5" stroke-linecap="round" stroke-linejoin="round"/>
</svg>
