<svg width="24" height="24" viewBox="0 0 24 24" fill="none" xmlns="http://www.w3.org/2000/svg">
<path d="M10.9475 2H9.05272C4.31588 2 2.42114 4 2.42114 9V15C2.42114 20 4.31588 22 9.05272 22H14.7369C19.4738 22 21.3685 20 21.3685 15V13" stroke="#6850FF" stroke-width="1.5" stroke-linecap="round" stroke-linejoin="round"/>
<path d="M15.7222 3.02001L8.25692 10.9C7.97271 11.2 7.6885 11.79 7.63166 12.22L7.22429 15.23C7.07271 16.32 7.80218 17.08 8.83482 16.93L11.6864 16.5C12.0843 16.44 12.6432 16.14 12.9369 15.84L20.4022 7.96001C21.6906 6.60001 22.2969 5.02001 20.4022 3.02001C18.5074 1.02001 17.0106 1.66001 15.7222 3.02001V3.02001Z" stroke="#6850FF" stroke-width="1.5" stroke-miterlimit="10" stroke-linecap="round" stroke-linejoin="round"/>
<path d="M14.6516 4.14999C14.9658 5.32746 15.5611 6.40006 16.3805 7.26504C17.2 8.13002 18.2161 8.7584 19.3316 9.08999" stroke="#6850FF" stroke-width="1.5" stroke-miterlimit="10" stroke-linecap="round" stroke-linejoin="round"/>
</svg>
